# xmcd
#
# Track frame offsets:
#	150
#	16101
#	32252
#	56569
#	73788
#	98791
#	113337
#	131128
#	147655
#	160566
#	182234
#	199065
#
# Disc length: 3085 seconds
#
# Revision: 0
# Processed by: cddbd v1.5.2PL0 Copyright (c) Steve Scherf et al.
# Submitted via: EasyCDDAExtractor 8.2.3.1
#
DISCID=9d0c0b0c
DTITLE=Ronnie Earl and The Broadcasters - Peace Of Mind
DYEAR=1990
DGENRE=Blues
TTITLE0=I Want To Shout About It
TTITLE1=I Wish You Could See Me Now
TTITLE2=Peace Of Mind
TTITLE3=T-Bone Boogie
TTITLE4=Wayne's Blues
TTITLE5=Bonehead Too
TTITLE6=More Than I Deserve
TTITLE7=Can't Keep From Crying
TTITLE8=I Cried My Eyes Out
TTITLE9=No Use Crying
TTITLE10=Stickin'
TTITLE11=Wayward Angel
EXTD=
EXTT0=
EXTT1=
EXTT2=
EXTT3=
EXTT4=
EXTT5=
EXTT6=
EXTT7=
EXTT8=
EXTT9=
EXTT10=
EXTT11=
PLAYORDER=
